<?xml version="1.0" encoding="utf-8"?>
<!-- Generator: Adobe Illustrator 21.0.2, SVG Export Plug-In . SVG Version: 6.00 Build 0)  -->
<svg version="1.1" id="Layer_3" xmlns="http://www.w3.org/2000/svg" xmlns:xlink="http://www.w3.org/1999/xlink" x="0px" y="0px"
	 viewBox="0 0 434 144.3" style="enable-background:new 0 0 434 144.3;" xml:space="preserve">
<style type="text/css">
	.st0{fill:#135F90;}
</style>
<title>stata-logo-release-15</title>
<g>
	<path class="st0" d="M94.2,26.5l-8,21.3H29.3c-4.4,0-8,3.6-8,8s3.6,8,8,8h35.6c16.2,0,29.3,13.1,29.3,29.3s-13.1,29.3-29.3,29.3H0
		L8,101h56.9c4.4,0,8-3.6,8-8s-3.6-8-8-8H29.3C13.1,85,0,71.9,0,55.7s13.1-29.3,29.3-29.3L94.2,26.5z"/>
	<polygon class="st0" points="259.9,26.5 251.9,47.8 278.5,47.8 278.5,122.3 299.9,122.3 299.9,47.8 321.2,47.8 329.1,26.5 	"/>
	<path class="st0" d="M386,85h-41c-4.4,0-8,3.6-8,8s3.6,8,8,8h49V85H386z M366.3,63.7H394v-8.3c-0.2-4.3-3.7-7.7-8-7.7h-62.3l8-21.3
		H386c16.2,0,29.3,13.1,29.3,29.3v66.6H345c-16.2,0-29.3-13.1-29.3-29.3s13.1-29.3,29.3-29.3L366.3,63.7z"/>
	<path class="st0" d="M222.8,85h-41c-4.4,0-8,3.6-8,8s3.6,8,8,8h49V85H222.8z M212.1,63.7h18.7v-8.3c-0.2-4.3-3.7-7.7-8-7.7h-62.3
		l8-21.3h54.3c16.2,0,29.3,13.1,29.3,29.3c0,0,0,0,0,0v66.6h-70.3c-16.2,0-29.3-13.1-29.3-29.3s13.1-29.3,29.3-29.3L212.1,63.7z"/>
	<polygon class="st0" points="96.7,26.5 88.7,47.8 115.4,47.8 115.4,122.3 136.7,122.3 136.7,47.8 158,47.8 166,26.5 	"/>
	<path class="st0" d="M417.2,15.4c0-0.3,0.1-0.6,0.4-0.8c0.4-0.2,0.8-0.3,1.2-0.3c0.8,0,1.5,0.2,2.1,0.6c0.5,0.4,0.8,1.1,0.8,1.7
		c0,0.7-0.3,1.5-0.9,1.9c-0.8,0.5-1.7,0.7-2.6,0.7h-0.5h-0.5V15.4z M413.4,14.4c0.5,0,1,0.1,1.5,0.4c0.3,0.3,0.4,0.7,0.4,1.1v7.6
		c0,0.4-0.1,0.8-0.4,1.1c-0.4,0.3-0.9,0.4-1.5,0.3v0.6h5.6v-0.6c-0.5,0-1-0.1-1.5-0.4c-0.3-0.3-0.4-0.7-0.4-1.1v-3.6h0.5
		c0.7,0,1.4,0.1,2,0.5c0.5,0.4,0.9,0.9,1,1.5c0.1,0.5,0.1,0.9,0.1,1.4c0,0.6,0.1,1.1,0.3,1.7c0.2,0.3,0.4,0.6,0.7,0.7
		c0.4,0.2,0.8,0.3,1.1,0.2c0.7,0,1.3-0.2,1.8-0.7c0.4-0.6,0.7-1.3,0.6-2V23h-0.6c0,0.5-0.1,1-0.3,1.5c-0.1,0.3-0.4,0.5-0.7,0.5
		c-0.5,0-0.7-0.4-0.9-1.3c0-0.3-0.1-0.6-0.2-0.9c-0.1-0.7-0.5-1.4-1-2c-0.6-0.5-1.3-0.9-2.1-1.1c1.1-0.1,2.2-0.5,3.2-1.1
		c0.6-0.4,1-1.1,1-1.8c0-0.9-0.5-1.7-1.2-2.1c-1-0.6-2.2-0.9-3.4-0.8h-5.8L413.4,14.4z M422.3,11.4c1.1,0.5,2.1,1.1,2.9,2
		c0.8,0.8,1.5,1.8,1.9,2.9c0.5,1.1,0.7,2.3,0.7,3.5c0,1.2-0.2,2.4-0.7,3.5c-0.5,1.1-1.1,2.1-2,3c-0.8,0.9-1.8,1.5-2.9,2
		c-4.6,1.9-9.9-0.3-11.8-4.9c-0.5-1.1-0.7-2.3-0.7-3.5c0-3.7,2.2-7,5.6-8.4C417.6,10.5,420.1,10.5,422.3,11.4L422.3,11.4z
		 M414.9,10.3c-1.3,0.5-2.4,1.3-3.3,2.2c-1,1-1.7,2.1-2.2,3.4c-1.6,3.9-0.7,8.3,2.3,11.2c1,1,2.1,1.7,3.3,2.2
		c1.2,0.5,2.5,0.8,3.9,0.8c1.4,0,2.7-0.2,4-0.8c1.2-0.5,2.4-1.3,3.3-2.2c1-1,1.8-2.1,2.3-3.4c0.5-1.2,0.8-2.6,0.8-3.9
		c0-1.4-0.3-2.7-0.8-4c-0.5-1.3-1.2-2.4-2.2-3.3c-1.9-1.9-4.6-3-7.3-3C417.6,9.5,416.2,9.8,414.9,10.3L414.9,10.3z"/>
</g>
</svg>
